%TF.GenerationSoftware,KiCad,Pcbnew,7.0.6-7.0.6~ubuntu22.04.1*%
%TF.CreationDate,2023-07-18T02:10:15-05:00*%
%TF.ProjectId,hydrophone_preamp,68796472-6f70-4686-9f6e-655f70726561,rev?*%
%TF.SameCoordinates,Original*%
%TF.FileFunction,Copper,L2,Bot*%
%TF.FilePolarity,Positive*%
%FSLAX46Y46*%
G04 Gerber Fmt 4.6, Leading zero omitted, Abs format (unit mm)*
G04 Created by KiCad (PCBNEW 7.0.6-7.0.6~ubuntu22.04.1) date 2023-07-18 02:10:15*
%MOMM*%
%LPD*%
G01*
G04 APERTURE LIST*
%TA.AperFunction,ViaPad*%
%ADD10C,0.800000*%
%TD*%
%TA.AperFunction,Conductor*%
%ADD11C,0.250000*%
%TD*%
G04 APERTURE END LIST*
D10*
%TO.N,GND*%
X125000000Y-126400000D03*
X121800000Y-123400000D03*
X139800000Y-102000000D03*
%TO.N,Net-(C3-Pad2)*%
X128500000Y-103500000D03*
X127800000Y-114200000D03*
%TO.N,Net-(C4-Pad2)*%
X127001910Y-104974500D03*
X126200000Y-114200000D03*
%TO.N,GND*%
X124800000Y-102000000D03*
X134425480Y-110025000D03*
X121400480Y-110600000D03*
X124400480Y-110800000D03*
X129000000Y-110000000D03*
%TD*%
D11*
%TO.N,Net-(C3-Pad2)*%
X127800000Y-114200000D02*
X127800000Y-104200000D01*
X127800000Y-104200000D02*
X128500000Y-103500000D01*
%TO.N,Net-(C4-Pad2)*%
X126200000Y-114200000D02*
X126724511Y-113675489D01*
X126724511Y-105251899D02*
X127001910Y-104974500D01*
X126724511Y-113675489D02*
X126724511Y-105251899D01*
%TD*%
%TA.AperFunction,Conductor*%
%TO.N,GND*%
G36*
X125603059Y-100020002D02*
G01*
X125617450Y-100030775D01*
X125617856Y-100031127D01*
X125617857Y-100031128D01*
X125726627Y-100125377D01*
X125857543Y-100185165D01*
X125964201Y-100200500D01*
X125964205Y-100200500D01*
X126035795Y-100200500D01*
X126035799Y-100200500D01*
X126142457Y-100185165D01*
X126273373Y-100125377D01*
X126382143Y-100031128D01*
X126382143Y-100031127D01*
X126382550Y-100030775D01*
X126447131Y-100001282D01*
X126465062Y-100000000D01*
X126534938Y-100000000D01*
X126603059Y-100020002D01*
X126617450Y-100030775D01*
X126617856Y-100031127D01*
X126617857Y-100031128D01*
X126726627Y-100125377D01*
X126857543Y-100185165D01*
X126964201Y-100200500D01*
X126964205Y-100200500D01*
X127035799Y-100200500D01*
X127069337Y-100195677D01*
X127093932Y-100192142D01*
X127164206Y-100202245D01*
X127187793Y-100216307D01*
X127192377Y-100219768D01*
X127205503Y-100229680D01*
X127209967Y-100233388D01*
X127239067Y-100259916D01*
X127239068Y-100259916D01*
X127247517Y-100265147D01*
X127254832Y-100269222D01*
X127263734Y-100273654D01*
X127263736Y-100273656D01*
X127280947Y-100278552D01*
X127301600Y-100284429D01*
X127307110Y-100286275D01*
X127343827Y-100300500D01*
X127343830Y-100300501D01*
X127353572Y-100302322D01*
X127361911Y-100303485D01*
X127371791Y-100304401D01*
X127371792Y-100304400D01*
X127371793Y-100304401D01*
X127381678Y-100303485D01*
X127410995Y-100300769D01*
X127416811Y-100300500D01*
X132540507Y-100300500D01*
X132561911Y-100303485D01*
X132571791Y-100304401D01*
X132571792Y-100304400D01*
X132571793Y-100304401D01*
X132581678Y-100303485D01*
X132610995Y-100300769D01*
X132616811Y-100300500D01*
X132627842Y-100300500D01*
X132627844Y-100300500D01*
X132638688Y-100298472D01*
X132644445Y-100297668D01*
X132683660Y-100294035D01*
X132683663Y-100294033D01*
X132693231Y-100291311D01*
X132701142Y-100288659D01*
X132710424Y-100285062D01*
X132710433Y-100285061D01*
X132743913Y-100264330D01*
X132748974Y-100261511D01*
X132784228Y-100243958D01*
X132784230Y-100243954D01*
X132792193Y-100237942D01*
X132798576Y-100232641D01*
X132805947Y-100225922D01*
X132805952Y-100225919D01*
X132805955Y-100225914D01*
X132807641Y-100224378D01*
X132811401Y-100222544D01*
X132815887Y-100219768D01*
X132816167Y-100220221D01*
X132871458Y-100193265D01*
X132910458Y-100192773D01*
X132964201Y-100200500D01*
X132964204Y-100200500D01*
X133035795Y-100200500D01*
X133035799Y-100200500D01*
X133142457Y-100185165D01*
X133273373Y-100125377D01*
X133382143Y-100031128D01*
X133382143Y-100031127D01*
X133382550Y-100030775D01*
X133447131Y-100001282D01*
X133465062Y-100000000D01*
X133534938Y-100000000D01*
X133603059Y-100020002D01*
X133617450Y-100030775D01*
X133617856Y-100031127D01*
X133617857Y-100031128D01*
X133726627Y-100125377D01*
X133857543Y-100185165D01*
X133964201Y-100200500D01*
X133964205Y-100200500D01*
X134035795Y-100200500D01*
X134035799Y-100200500D01*
X134142457Y-100185165D01*
X134273373Y-100125377D01*
X134382143Y-100031128D01*
X134382143Y-100031127D01*
X134382550Y-100030775D01*
X134447131Y-100001282D01*
X134465062Y-100000000D01*
X134534938Y-100000000D01*
X134603059Y-100020002D01*
X134617450Y-100030775D01*
X134617856Y-100031127D01*
X134617857Y-100031128D01*
X134726627Y-100125377D01*
X134857543Y-100185165D01*
X134964201Y-100200500D01*
X134964205Y-100200500D01*
X135035799Y-100200500D01*
X135069337Y-100195677D01*
X135093932Y-100192142D01*
X135164206Y-100202245D01*
X135187793Y-100216307D01*
X135192377Y-100219768D01*
X135205503Y-100229680D01*
X135209967Y-100233388D01*
X135239067Y-100259916D01*
X135239068Y-100259916D01*
X135247517Y-100265147D01*
X135254832Y-100269222D01*
X135263734Y-100273654D01*
X135263736Y-100273656D01*
X135280947Y-100278552D01*
X135301600Y-100284429D01*
X135307110Y-100286275D01*
X135343827Y-100300500D01*
X135343830Y-100300501D01*
X135353572Y-100302322D01*
X135361911Y-100303485D01*
X135371791Y-100304401D01*
X135371792Y-100304400D01*
X135371793Y-100304401D01*
X135381678Y-100303485D01*
X135410995Y-100300769D01*
X135416811Y-100300500D01*
X140573500Y-100300500D01*
X140641621Y-100320502D01*
X140688114Y-100374158D01*
X140699500Y-100426500D01*
X140699500Y-128573500D01*
X140679498Y-128641621D01*
X140625842Y-128688114D01*
X140573500Y-128699500D01*
X119426500Y-128699500D01*
X119358379Y-128679498D01*
X119311886Y-128625842D01*
X119300500Y-128573500D01*
X119300500Y-126554990D01*
X138569845Y-126554990D01*
X138579578Y-126734498D01*
X138579579Y-126734506D01*
X138627670Y-126907717D01*
X138627672Y-126907720D01*
X138627673Y-126907723D01*
X138711881Y-127066556D01*
X138828265Y-127203574D01*
X138971382Y-127312369D01*
X139134541Y-127387854D01*
X139134544Y-127387854D01*
X139134545Y-127387855D01*
X139170807Y-127395836D01*
X139310113Y-127426500D01*
X139310116Y-127426500D01*
X139444808Y-127426500D01*
X139444816Y-127426500D01*
X139455743Y-127425311D01*
X139578714Y-127411938D01*
X139578715Y-127411937D01*
X139578721Y-127411937D01*
X139749085Y-127354535D01*
X139903126Y-127261851D01*
X140033642Y-127138220D01*
X140134529Y-126989423D01*
X140201070Y-126822416D01*
X140230155Y-126645010D01*
X140220422Y-126465499D01*
X140203432Y-126404309D01*
X140172329Y-126292282D01*
X140172327Y-126292280D01*
X140172327Y-126292277D01*
X140088119Y-126133444D01*
X139971735Y-125996426D01*
X139828618Y-125887631D01*
X139665459Y-125812146D01*
X139665457Y-125812145D01*
X139665454Y-125812144D01*
X139489893Y-125773501D01*
X139489890Y-125773500D01*
X139489887Y-125773500D01*
X139355184Y-125773500D01*
X139355174Y-125773500D01*
X139221285Y-125788061D01*
X139221272Y-125788064D01*
X139050917Y-125845463D01*
X139050916Y-125845464D01*
X138896875Y-125938147D01*
X138766363Y-126061773D01*
X138766359Y-126061777D01*
X138665469Y-126210579D01*
X138598930Y-126377581D01*
X138598929Y-126377583D01*
X138569845Y-126554990D01*
X119300500Y-126554990D01*
X119300500Y-114200000D01*
X125286496Y-114200000D01*
X125306457Y-114389927D01*
X125336526Y-114482470D01*
X125365473Y-114571556D01*
X125365476Y-114571561D01*
X125460958Y-114736941D01*
X125460965Y-114736951D01*
X125588744Y-114878864D01*
X125588747Y-114878866D01*
X125743248Y-114991118D01*
X125917712Y-115068794D01*
X126104513Y-115108500D01*
X126295487Y-115108500D01*
X126482288Y-115068794D01*
X126656752Y-114991118D01*
X126811253Y-114878866D01*
X126906364Y-114773234D01*
X126966809Y-114735995D01*
X127037793Y-114737346D01*
X127093635Y-114773234D01*
X127188747Y-114878866D01*
X127343248Y-114991118D01*
X127517712Y-115068794D01*
X127704513Y-115108500D01*
X127895487Y-115108500D01*
X128082288Y-115068794D01*
X128256752Y-114991118D01*
X128411253Y-114878866D01*
X128411255Y-114878864D01*
X128539034Y-114736951D01*
X128539035Y-114736949D01*
X128539040Y-114736944D01*
X128634527Y-114571556D01*
X128693542Y-114389928D01*
X128713504Y-114200000D01*
X128693542Y-114010072D01*
X128634527Y-113828444D01*
X128539040Y-113663056D01*
X128465863Y-113581784D01*
X128435146Y-113517776D01*
X128433500Y-113497474D01*
X128433500Y-105754990D01*
X137969845Y-105754990D01*
X137979578Y-105934498D01*
X137979579Y-105934506D01*
X138027670Y-106107717D01*
X138027672Y-106107720D01*
X138027673Y-106107723D01*
X138111881Y-106266556D01*
X138228265Y-106403574D01*
X138371382Y-106512369D01*
X138534541Y-106587854D01*
X138534544Y-106587854D01*
X138534545Y-106587855D01*
X138570807Y-106595836D01*
X138710113Y-106626500D01*
X138710116Y-106626500D01*
X138844808Y-106626500D01*
X138844816Y-106626500D01*
X138855743Y-106625311D01*
X138978714Y-106611938D01*
X138978715Y-106611937D01*
X138978721Y-106611937D01*
X139149085Y-106554535D01*
X139303126Y-106461851D01*
X139433642Y-106338220D01*
X139534529Y-106189423D01*
X139601070Y-106022416D01*
X139630155Y-105845010D01*
X139620422Y-105665499D01*
X139603432Y-105604309D01*
X139572329Y-105492282D01*
X139572327Y-105492280D01*
X139572327Y-105492277D01*
X139488119Y-105333444D01*
X139371735Y-105196426D01*
X139228618Y-105087631D01*
X139065459Y-105012146D01*
X139065457Y-105012145D01*
X139065454Y-105012144D01*
X138889893Y-104973501D01*
X138889890Y-104973500D01*
X138889887Y-104973500D01*
X138755184Y-104973500D01*
X138755174Y-104973500D01*
X138621285Y-104988061D01*
X138621272Y-104988064D01*
X138450917Y-105045463D01*
X138450916Y-105045464D01*
X138296875Y-105138147D01*
X138166363Y-105261773D01*
X138166359Y-105261777D01*
X138065469Y-105410579D01*
X137998930Y-105577581D01*
X137998929Y-105577583D01*
X137969845Y-105754990D01*
X128433500Y-105754990D01*
X128433500Y-104534500D01*
X128453502Y-104466379D01*
X128507158Y-104419886D01*
X128559500Y-104408500D01*
X128595487Y-104408500D01*
X128782288Y-104368794D01*
X128956752Y-104291118D01*
X129111253Y-104178866D01*
X129111255Y-104178864D01*
X129239034Y-104036951D01*
X129239035Y-104036949D01*
X129239040Y-104036944D01*
X129334527Y-103871556D01*
X129393542Y-103689928D01*
X129413504Y-103500000D01*
X129393542Y-103310072D01*
X129334527Y-103128444D01*
X129239040Y-102963056D01*
X129239038Y-102963054D01*
X129239034Y-102963048D01*
X129111255Y-102821135D01*
X128956752Y-102708882D01*
X128782288Y-102631206D01*
X128595487Y-102591500D01*
X128404513Y-102591500D01*
X128217711Y-102631206D01*
X128043247Y-102708882D01*
X127888744Y-102821135D01*
X127760965Y-102963048D01*
X127760958Y-102963058D01*
X127665476Y-103128438D01*
X127665473Y-103128445D01*
X127606457Y-103310072D01*
X127589092Y-103475292D01*
X127562079Y-103540949D01*
X127552877Y-103551216D01*
X127411336Y-103692757D01*
X127398901Y-103702721D01*
X127399089Y-103702948D01*
X127392980Y-103708001D01*
X127345016Y-103759078D01*
X127323866Y-103780227D01*
X127319560Y-103785777D01*
X127315714Y-103790279D01*
X127283417Y-103824674D01*
X127283411Y-103824683D01*
X127273651Y-103842435D01*
X127262803Y-103858950D01*
X127250386Y-103874958D01*
X127231645Y-103918264D01*
X127229034Y-103923594D01*
X127206305Y-103964939D01*
X127206304Y-103964940D01*
X127204662Y-103971338D01*
X127168345Y-104032344D01*
X127104812Y-104064030D01*
X127082621Y-104066000D01*
X126906423Y-104066000D01*
X126719621Y-104105706D01*
X126545157Y-104183382D01*
X126390654Y-104295635D01*
X126262875Y-104437548D01*
X126262868Y-104437558D01*
X126167386Y-104602938D01*
X126167383Y-104602945D01*
X126108367Y-104784572D01*
X126088406Y-104974500D01*
X126101511Y-105099197D01*
X126098243Y-105143698D01*
X126091011Y-105171867D01*
X126091011Y-105192122D01*
X126089460Y-105211832D01*
X126086291Y-105231841D01*
X126086291Y-105231842D01*
X126090731Y-105278816D01*
X126091011Y-105284749D01*
X126091011Y-113192336D01*
X126071009Y-113260457D01*
X126017353Y-113306950D01*
X125991209Y-113315582D01*
X125917715Y-113331204D01*
X125743247Y-113408882D01*
X125588744Y-113521135D01*
X125460965Y-113663048D01*
X125460958Y-113663058D01*
X125365476Y-113828438D01*
X125365473Y-113828445D01*
X125306457Y-114010072D01*
X125286496Y-114200000D01*
X119300500Y-114200000D01*
X119300500Y-101754990D01*
X119969845Y-101754990D01*
X119979578Y-101934498D01*
X119979579Y-101934506D01*
X120027670Y-102107717D01*
X120027672Y-102107720D01*
X120027673Y-102107723D01*
X120111881Y-102266556D01*
X120228265Y-102403574D01*
X120371382Y-102512369D01*
X120534541Y-102587854D01*
X120534544Y-102587854D01*
X120534545Y-102587855D01*
X120551105Y-102591500D01*
X120710113Y-102626500D01*
X120710116Y-102626500D01*
X120844808Y-102626500D01*
X120844816Y-102626500D01*
X120855743Y-102625311D01*
X120978714Y-102611938D01*
X120978715Y-102611937D01*
X120978721Y-102611937D01*
X121149085Y-102554535D01*
X121303126Y-102461851D01*
X121433642Y-102338220D01*
X121534529Y-102189423D01*
X121601070Y-102022416D01*
X121630155Y-101845010D01*
X121620422Y-101665499D01*
X121603432Y-101604309D01*
X121572329Y-101492282D01*
X121572327Y-101492280D01*
X121572327Y-101492277D01*
X121488119Y-101333444D01*
X121371735Y-101196426D01*
X121228618Y-101087631D01*
X121065459Y-101012146D01*
X121065457Y-101012145D01*
X121065454Y-101012144D01*
X120889893Y-100973501D01*
X120889890Y-100973500D01*
X120889887Y-100973500D01*
X120755184Y-100973500D01*
X120755174Y-100973500D01*
X120621285Y-100988061D01*
X120621272Y-100988064D01*
X120450917Y-101045463D01*
X120450916Y-101045464D01*
X120296875Y-101138147D01*
X120166363Y-101261773D01*
X120166359Y-101261777D01*
X120065469Y-101410579D01*
X119998930Y-101577581D01*
X119998929Y-101577583D01*
X119969845Y-101754990D01*
X119300500Y-101754990D01*
X119300500Y-100426500D01*
X119320502Y-100358379D01*
X119374158Y-100311886D01*
X119426500Y-100300500D01*
X124540507Y-100300500D01*
X124561911Y-100303485D01*
X124571791Y-100304401D01*
X124571792Y-100304400D01*
X124571793Y-100304401D01*
X124581678Y-100303485D01*
X124610995Y-100300769D01*
X124616811Y-100300500D01*
X124627842Y-100300500D01*
X124627844Y-100300500D01*
X124638688Y-100298472D01*
X124644445Y-100297668D01*
X124683660Y-100294035D01*
X124683663Y-100294033D01*
X124693231Y-100291311D01*
X124701142Y-100288659D01*
X124710424Y-100285062D01*
X124710433Y-100285061D01*
X124743913Y-100264330D01*
X124748974Y-100261511D01*
X124784228Y-100243958D01*
X124784230Y-100243954D01*
X124792193Y-100237942D01*
X124798576Y-100232641D01*
X124805947Y-100225922D01*
X124805952Y-100225919D01*
X124805955Y-100225914D01*
X124807641Y-100224378D01*
X124811401Y-100222544D01*
X124815887Y-100219768D01*
X124816167Y-100220221D01*
X124871458Y-100193265D01*
X124910458Y-100192773D01*
X124964201Y-100200500D01*
X124964204Y-100200500D01*
X125035795Y-100200500D01*
X125035799Y-100200500D01*
X125142457Y-100185165D01*
X125273373Y-100125377D01*
X125382143Y-100031128D01*
X125382143Y-100031127D01*
X125382550Y-100030775D01*
X125447131Y-100001282D01*
X125465062Y-100000000D01*
X125534938Y-100000000D01*
X125603059Y-100020002D01*
G37*
%TD.AperFunction*%
%TD*%
M02*
