%TF.GenerationSoftware,KiCad,Pcbnew,7.0.6-7.0.6~ubuntu22.04.1*%
%TF.CreationDate,2023-07-18T02:10:15-05:00*%
%TF.ProjectId,hydrophone_preamp,68796472-6f70-4686-9f6e-655f70726561,rev?*%
%TF.SameCoordinates,Original*%
%TF.FileFunction,Paste,Top*%
%TF.FilePolarity,Positive*%
%FSLAX46Y46*%
G04 Gerber Fmt 4.6, Leading zero omitted, Abs format (unit mm)*
G04 Created by KiCad (PCBNEW 7.0.6-7.0.6~ubuntu22.04.1) date 2023-07-18 02:10:15*
%MOMM*%
%LPD*%
G01*
G04 APERTURE LIST*
G04 Aperture macros list*
%AMRoundRect*
0 Rectangle with rounded corners*
0 $1 Rounding radius*
0 $2 $3 $4 $5 $6 $7 $8 $9 X,Y pos of 4 corners*
0 Add a 4 corners polygon primitive as box body*
4,1,4,$2,$3,$4,$5,$6,$7,$8,$9,$2,$3,0*
0 Add four circle primitives for the rounded corners*
1,1,$1+$1,$2,$3*
1,1,$1+$1,$4,$5*
1,1,$1+$1,$6,$7*
1,1,$1+$1,$8,$9*
0 Add four rect primitives between the rounded corners*
20,1,$1+$1,$2,$3,$4,$5,0*
20,1,$1+$1,$4,$5,$6,$7,0*
20,1,$1+$1,$6,$7,$8,$9,0*
20,1,$1+$1,$8,$9,$2,$3,0*%
G04 Aperture macros list end*
%ADD10RoundRect,0.250000X0.550000X-1.500000X0.550000X1.500000X-0.550000X1.500000X-0.550000X-1.500000X0*%
%ADD11RoundRect,0.250002X-1.699998X-1.699998X1.699998X-1.699998X1.699998X1.699998X-1.699998X1.699998X0*%
%ADD12R,0.500000X0.500000*%
%ADD13RoundRect,0.200000X0.275000X-0.200000X0.275000X0.200000X-0.275000X0.200000X-0.275000X-0.200000X0*%
%ADD14RoundRect,0.250000X0.650000X-0.325000X0.650000X0.325000X-0.650000X0.325000X-0.650000X-0.325000X0*%
%ADD15RoundRect,0.250001X-0.799999X-0.799999X0.799999X-0.799999X0.799999X0.799999X-0.799999X0.799999X0*%
%ADD16RoundRect,0.200000X-0.275000X0.200000X-0.275000X-0.200000X0.275000X-0.200000X0.275000X0.200000X0*%
%ADD17RoundRect,0.225000X0.250000X-0.225000X0.250000X0.225000X-0.250000X0.225000X-0.250000X-0.225000X0*%
%ADD18RoundRect,0.150000X-0.150000X0.825000X-0.150000X-0.825000X0.150000X-0.825000X0.150000X0.825000X0*%
%ADD19RoundRect,0.200000X-0.200000X-0.275000X0.200000X-0.275000X0.200000X0.275000X-0.200000X0.275000X0*%
G04 APERTURE END LIST*
D10*
%TO.C,C4*%
X126200000Y-121800000D03*
X126200000Y-116400000D03*
%TD*%
D11*
%TO.C,J3*%
X121800000Y-126400000D03*
%TD*%
D12*
%TO.C,D1*%
X121400480Y-112100000D03*
X121400480Y-109900000D03*
%TD*%
D13*
%TO.C,R8*%
X138800000Y-116625000D03*
X138800000Y-114975000D03*
%TD*%
D14*
%TO.C,C7*%
X124400480Y-112975000D03*
X124400480Y-110025000D03*
%TD*%
D15*
%TO.C,J6*%
X137800000Y-102000000D03*
%TD*%
D16*
%TO.C,R10*%
X120600000Y-119575000D03*
X120600000Y-121225000D03*
%TD*%
%TO.C,R9*%
X138800000Y-121375000D03*
X138800000Y-123025000D03*
%TD*%
D17*
%TO.C,C5*%
X131250000Y-107525000D03*
X131250000Y-105975000D03*
%TD*%
D16*
%TO.C,R6*%
X138800000Y-118175000D03*
X138800000Y-119825000D03*
%TD*%
D13*
%TO.C,R3*%
X123500000Y-107325000D03*
X123500000Y-105675000D03*
%TD*%
D11*
%TO.C,J1*%
X135900000Y-126400000D03*
%TD*%
D15*
%TO.C,J7*%
X134000000Y-102000000D03*
%TD*%
D17*
%TO.C,C10*%
X130400480Y-111775000D03*
X130400480Y-110225000D03*
%TD*%
D16*
%TO.C,R4*%
X138000480Y-108175000D03*
X138000480Y-109825000D03*
%TD*%
D10*
%TO.C,C3*%
X133700000Y-121800000D03*
X133700000Y-116400000D03*
%TD*%
D14*
%TO.C,C2*%
X135900480Y-112975000D03*
X135900480Y-110025000D03*
%TD*%
D11*
%TO.C,J2*%
X129000000Y-126400000D03*
%TD*%
D14*
%TO.C,C9*%
X127400480Y-112975000D03*
X127400480Y-110025000D03*
%TD*%
%TO.C,C8*%
X136000000Y-107475000D03*
X136000000Y-104525000D03*
%TD*%
D16*
%TO.C,R7*%
X120600000Y-116425000D03*
X120600000Y-118075000D03*
%TD*%
D13*
%TO.C,R5*%
X138000480Y-113025000D03*
X138000480Y-111375000D03*
%TD*%
D16*
%TO.C,R2*%
X121500000Y-105675000D03*
X121500000Y-107325000D03*
%TD*%
D14*
%TO.C,C6*%
X133500000Y-107475000D03*
X133500000Y-104525000D03*
%TD*%
%TO.C,C1*%
X132900480Y-112975000D03*
X132900480Y-110025000D03*
%TD*%
D18*
%TO.C,U1*%
X129405000Y-102025000D03*
X128135000Y-102025000D03*
X126865000Y-102025000D03*
X125595000Y-102025000D03*
X125595000Y-106975000D03*
X126865000Y-106975000D03*
X128135000Y-106975000D03*
X129405000Y-106975000D03*
%TD*%
D19*
%TO.C,R1*%
X120975000Y-104000000D03*
X122625000Y-104000000D03*
%TD*%
M02*
